HIERARCHY
ROOT Pelvis
{
	OFFSET 0.000000 0.000000 0.000000
	CHANNELS 6 Xposition Yposition Zposition Zrotation Yrotation Xrotation 
	JOINT Left_hip
	{
		OFFSET 0.070241 -0.085575 -0.010474
		CHANNELS 3 Zrotation Yrotation Xrotation
		JOINT Left_knee
		{
			OFFSET 0.032125 -0.356873 -0.000555
			CHANNELS 3 Zrotation Yrotation Xrotation
			JOINT Left_ankle
			{
				OFFSET -0.010961 -0.370212 -0.042278
				CHANNELS 3 Zrotation Yrotation Xrotation
				JOINT Left_foot
				{
					OFFSET 0.023322 -0.052281 0.110104
					CHANNELS 3 Zrotation Yrotation Xrotation
					End Site
					{
						OFFSET 0.000000 0.000000 0.000000
					}
				}
			}
		}
	}
	JOINT Right_hip
	{
		OFFSET -0.068518 -0.084320 -0.007402
		CHANNELS 3 Zrotation Yrotation Xrotation
		JOINT Right_knee
		{
			OFFSET -0.037345 -0.364815 -0.003619
			CHANNELS 3 Zrotation Yrotation Xrotation
			JOINT Right_ankle
			{
				OFFSET 0.013394 -0.370006 -0.039954
				CHANNELS 3 Zrotation Yrotation Xrotation
				JOINT Right_foot
				{
					OFFSET -0.019600 -0.045455 0.113223
					CHANNELS 3 Zrotation Yrotation Xrotation
					End Site
					{
						OFFSET 0.000000 0.000000 0.000000
					}
				}
			}
		}
	}
	JOINT Spine1
	{
		OFFSET -0.002404 0.098129 -0.018169
		CHANNELS 3 Zrotation Yrotation Xrotation
		JOINT Spine2
		{
			OFFSET 0.003989 0.127209 -0.001742
			CHANNELS 3 Zrotation Yrotation Xrotation
			JOINT Spine3
			{
				OFFSET 0.001758 0.046641 0.023475
				CHANNELS 3 Zrotation Yrotation Xrotation
				JOINT Neck
				{
					OFFSET -0.003759 0.194901 -0.039982
					CHANNELS 3 Zrotation Yrotation Xrotation
					JOINT Head
					{
						OFFSET 0.003999 0.063756 0.047665
						CHANNELS 3 Zrotation Yrotation Xrotation
						End Site
						{
							OFFSET 0.000000 0.000000 0.000000
						}
					}
				}
				JOINT Left_collar
				{
					OFFSET 0.071816 0.109048 -0.028973
					CHANNELS 3 Zrotation Yrotation Xrotation
					JOINT Left_shoulder
					{
						OFFSET 0.084027 0.032269 -0.006525
						CHANNELS 3 Zrotation Yrotation Xrotation
						JOINT Left_elbow
						{
							OFFSET 0.243854 -0.013992 -0.025905
							CHANNELS 3 Zrotation Yrotation Xrotation
							JOINT Left_wrist
							{
								OFFSET 0.232156 0.008196 -0.000339
								CHANNELS 3 Zrotation Yrotation Xrotation
								JOINT Left_palm
								{
									OFFSET 0.075377 -0.009461 -0.012494
									CHANNELS 3 Zrotation Yrotation Xrotation
									End Site
									{
										OFFSET 0.000000 0.000000 0.000000
									}
								}
							}
						}
					}
				}
				JOINT Right_collar
				{
					OFFSET -0.073768 0.107001 -0.033755
					CHANNELS 3 Zrotation Yrotation Xrotation
					JOINT Right_shoulder
					{
						OFFSET -0.086837 0.032868 -0.009431
						CHANNELS 3 Zrotation Yrotation Xrotation
						JOINT Right_elbow
						{
							OFFSET -0.236446 -0.012544 -0.018747
							CHANNELS 3 Zrotation Yrotation Xrotation
							JOINT Right_wrist
							{
								OFFSET -0.236110 0.006124 -0.004327
								CHANNELS 3 Zrotation Yrotation Xrotation
								JOINT Right_palm
								{
									OFFSET -0.074800 -0.006875 -0.009610
									CHANNELS 3 Zrotation Yrotation Xrotation
									End Site
									{
										OFFSET 0.000000 0.000000 0.000000
									}
								}
							}
						}
					}
				}
			}
		}
	}
}
MOTION
Frames: 6
Frame Time: 0.100000
0.000000 0.000000 0.000000 178.071412 15.374343 -8.648534 3.394443 6.360926 -0.578676 1.315649 -8.321706 -6.089304 -4.340892 25.071940 1.513103 10.368273 -4.638209 -3.090032 -0.212265 -6.424948 -1.683289 -0.837220 6.204312 -2.450688 0.561021 -21.962284 -1.788780 3.156217 6.192098 5.172891 0.755191 2.838145 -0.628657 0.737744 -2.201619 -7.254847 0.745028 3.396690 0.187506 -1.622225 9.536829 5.147758 4.637819 14.707363 8.999920 -6.161742 1.289251 -11.196707 5.602806 -15.416159 -15.735304 2.010128 12.979413 -3.977801 0.770952 -0.565865 33.754142 -2.332042 -8.246422 0.282870 7.611907 1.437419 -6.942823 -10.653486 14.785277 -25.914176 -8.532165 -12.047843 -9.027414 -4.142772 -1.618122 41.131750 9.053637 9.564960 -5.568345 
-0.000115 -0.000593 0.003804 177.948878 14.947944 -8.606608 3.597950 6.474497 -0.232001 1.426573 -8.386201 -6.296359 -4.274801 25.352791 1.268179 10.335094 -4.567302 -2.967659 -0.033647 -6.367168 -1.387174 -0.810654 6.240353 -2.806501 0.402220 -21.621697 -1.621170 3.994903 5.712855 5.040444 0.538619 3.021191 -1.178238 0.889268 -1.974125 -7.196123 0.993936 3.499707 0.129554 -0.890554 13.828924 5.574051 4.581521 17.486874 7.920661 -5.409830 1.654776 -11.741133 7.607199 -14.782994 -16.498817 1.992904 13.127896 -3.498734 0.229914 -0.716972 34.660080 -2.314167 -8.118949 -0.034478 7.335553 0.847183 -6.795070 -11.165059 14.281168 -25.948613 -8.584730 -11.921462 -8.208216 -3.306896 -1.753813 41.571401 9.291089 9.548801 -5.657869 
-0.000410 -0.001213 0.007093 177.828381 15.116128 -8.600265 3.694436 6.476629 -0.050104 1.476633 -8.663818 -6.357373 -4.204194 25.527672 1.130090 10.125114 -4.752093 -2.875383 0.085407 -6.463393 -1.124341 -0.844092 6.300683 -2.923385 0.311445 -21.908473 -1.680312 4.423870 5.834039 5.085645 0.232826 3.037070 -1.502403 1.011594 -1.884032 -7.466718 1.006333 3.394642 0.267689 -0.854288 14.185523 5.863631 4.300111 16.986226 7.615453 -4.273956 2.821889 -11.946394 9.565791 -14.332795 -17.488350 2.152413 12.891208 -3.146607 0.554748 -0.894627 35.393231 -1.901983 -7.926908 0.004108 7.060871 -0.169318 -6.968934 -11.251027 13.706031 -25.744864 -8.793827 -12.391292 -7.461108 -3.536026 -1.666314 41.538322 9.027515 9.450395 -5.385407 
-0.000972 -0.001454 0.009541 177.759351 15.654138 -9.052827 3.723866 6.423365 0.486434 1.470047 -9.171230 -6.294084 -4.231134 25.644688 0.899547 10.072726 -5.040284 -2.901752 0.034242 -6.651014 -0.421709 -0.906980 6.370144 -2.879886 0.326956 -22.437347 -1.947975 4.468978 6.203677 5.109699 -0.064652 2.987582 -1.559335 1.079577 -1.936570 -7.328083 0.892784 3.169096 0.572310 -1.079731 12.493278 6.008837 4.034796 15.002553 7.585709 -3.501814 3.932696 -11.744328 10.817210 -13.885334 -18.203348 2.013904 12.493165 -3.081034 0.800006 -1.302377 35.646818 -1.571150 -7.726372 0.099379 6.973855 -0.993841 -7.129772 -10.958415 12.948972 -25.247259 -8.969271 -12.276735 -6.975591 -3.808070 -1.261794 40.882292 8.630656 9.216962 -4.885539 
-0.001257 -0.001316 0.009425 177.816821 15.853962 -9.140081 3.635154 6.325564 0.486778 1.419172 -9.232827 -6.124255 -4.237502 25.730176 0.805333 10.051924 -5.366429 -2.857672 -0.067746 -6.738717 -0.486979 -0.862490 6.480911 -2.501404 0.468274 -22.919575 -2.251603 4.086399 6.957475 5.330088 -0.192489 3.015888 -1.494818 0.980591 -1.885853 -7.453749 0.575509 3.075929 0.615658 -1.750617 8.454683 6.079373 3.809607 11.292429 8.626829 -3.477943 4.881496 -11.590140 11.469590 -14.006587 -18.802619 2.196578 11.597278 -4.188506 1.192174 -1.403590 35.645170 -1.367656 -7.770400 0.201666 7.508827 -1.303645 -7.412346 -10.635794 12.616275 -24.847062 -9.035882 -12.293388 -7.287968 -4.281443 -1.038924 40.411089 8.112685 9.212158 -4.554869 
-0.001589 -0.000803 0.007579 177.907557 15.877705 -9.475377 3.536176 6.334884 0.757784 1.406855 -9.221846 -6.142412 -4.371376 25.756352 0.798407 10.232863 -5.615347 -2.883245 -0.222482 -6.814576 -0.313157 -0.870823 6.583007 -2.358839 0.651436 -23.135194 -2.377929 3.680026 7.595706 5.496586 -0.231605 3.080717 -1.445302 0.922323 -1.891296 -6.911685 0.325491 3.079920 0.633485 -2.318240 4.805786 6.564208 3.713471 8.132105 9.542184 -3.887088 5.019323 -11.213300 11.475822 -14.297592 -18.906733 2.168528 10.341638 -4.895628 1.695110 -1.843754 35.373261 -1.491074 -7.862357 0.098553 8.116229 -0.788668 -7.408430 -10.434949 12.618363 -24.642960 -8.835163 -12.051763 -7.941438 -4.725436 -0.503125 39.793952 7.781925 9.139912 -4.315350 
